<svg xmlns="http://www.w3.org/2000/svg" viewBox="5500 1876.521 135 50.623">
  <defs>
    <style>
    .cls-1 {
      fill: #91c92c;
      stroke-dasharray: 2000;
      stroke-dashoffset: 2000;
      animation: dash 30s forwards, fillIn 12s forwards;
      fill-opacity: 0
    }

    @keyframes fillIn{
      100%{
          fill-opacity: 1;
      }
    }

    @keyframes dash {
      from {
          stroke-dashoffset: 2000;
      }
      to {
          stroke-dashoffset: 0;
      }
    }  
    </style>
  </defs>
  <g id="Group_4" data-name="Group 4" transform="translate(4638 1679.521)">
    <path id="Path_1" data-name="Path 1" class="cls-1" d="M432.736,23.1l-10-10a1.966,1.966,0,0,1,0-2.792l10-10.031a.865.865,0,0,1,1.474.62V22.481A.865.865,0,0,1,432.736,23.1Z" transform="translate(548.985 196.989)" stroke="black" fill="black" stroke-width ="0.5px"/>
    <path id="Path_2" data-name="Path 2" class="cls-1" d="M477.731-.013a.868.868,0,0,0-.931.879V5.546a.862.862,0,0,0,.724.853,5.323,5.323,0,0,1,0,10.548.862.862,0,0,0-.724.853v4.679a.884.884,0,0,0,.931.879,11.721,11.721,0,0,0,0-23.37Z" transform="translate(508.463 197.017)" stroke="black" fill="black" stroke-width ="0.5px"/>
    <path id="Path_3" data-name="Path 3" class="cls-1" d="M1.137,114.739A2.268,2.268,0,0,1,0,112.671a2.4,2.4,0,0,1,2.43-2.43,2.9,2.9,0,0,1,1.293.336,13.848,13.848,0,0,0,7.523,2.534c2.585,0,4.059-1.086,4.059-2.818v-.1c0-2.016-2.766-2.714-5.843-3.671-3.852-1.086-8.169-2.663-8.169-7.652v-.1c0-4.938,4.11-7.962,9.307-7.962a18.249,18.249,0,0,1,8.221,2.12,2.527,2.527,0,0,1,1.448,2.275,2.407,2.407,0,0,1-2.482,2.43,2.525,2.525,0,0,1-1.189-.284,14.313,14.313,0,0,0-6.153-1.784c-2.327,0-3.671,1.086-3.671,2.559v.1c0,1.939,2.818,2.714,5.894,3.7,3.826,1.189,8.118,2.921,8.118,7.626v.1c0,5.481-4.266,8.221-9.72,8.221a18.2,18.2,0,0,1-9.927-3.128" transform="translate(862 129.678)" stroke="black" fill="black" stroke-width ="0.5px"/>
    <path id="Path_4" data-name="Path 4" class="cls-1" d="M142,104.153v-.1a13.965,13.965,0,0,1,27.92-.1v.1a13.668,13.668,0,0,1-14.038,13.6A13.513,13.513,0,0,1,142,104.153m21.9,0v-.1a8.068,8.068,0,0,0-8.04-8.4c-4.809,0-7.885,3.749-7.885,8.3v.1a8.044,8.044,0,0,0,7.988,8.35c4.86,0,7.937-3.749,7.937-8.247" transform="translate(756.71 129.975)" stroke="black" fill="black" stroke-width ="0.5px"/>
    <path id="Path_5" data-name="Path 5" class="cls-1" d="M271.308,90.6A11.4,11.4,0,0,0,259.7,102.052v12.409a3,3,0,0,0,3,3h0a3,3,0,0,0,3-3V101.846a5.611,5.611,0,0,1,5.61-5.713,5.827,5.827,0,0,1,5.868,5.713v12.616a3,3,0,0,0,3,3h0a3,3,0,0,0,3-3V102.052A11.617,11.617,0,0,0,271.308,90.6Z" transform="translate(669.438 129.826)" stroke="black" fill="black" stroke-width ="0.5px"/>
    <path id="Path_6" data-name="Path 6" class="cls-1" d="M90.8,88.437h0a9.213,9.213,0,0,0,8.971,9.436h0a14.916,14.916,0,0,0,1.577.026,2.78,2.78,0,0,0,2.792-2.792h0a2.8,2.8,0,0,0-2.792-2.792h-.8a3.735,3.735,0,0,1-3.723-3.774V76.623h4.6a2.714,2.714,0,0,0,2.714-2.714h0a2.714,2.714,0,0,0-2.714-2.714H96.8V66.8a3,3,0,1,0-6,0v7.135h0Z" transform="translate(794.674 149.698)" stroke="black" fill="black" stroke-width ="0.5px"/>
    <path id="Path_7" data-name="Path 7" class="cls-1" d="M369.315,103.559a2.571,2.571,0,0,0,2.585,2.559h9.772a2.588,2.588,0,0,0,2.585-2.559c0-7.471-4.989-13.159-11.944-13.159C364.429,90.4,359,96.579,359,104.05v.1a13.393,13.393,0,0,0,13.65,13.495,13.86,13.86,0,0,0,8.712-2.973,2.72,2.72,0,0,0,.129-4.162,2.814,2.814,0,0,0-3.619.026,7.99,7.99,0,0,1-5.093,1.861c-4.576,0-7.859-3.8-7.859-8.35v-.1c0-4.55,2.585-8.3,7.316-8.3,3.128,0,5.326,2.249,6.179,5.351H371.9A2.571,2.571,0,0,0,369.315,103.559Z" transform="translate(595.809 129.975)" stroke="black" fill="black" stroke-width ="0.5px"/>
  </g>
</svg>
